<svg width="18" height="15" viewBox="0 0 18 15" fill="none" xmlns="http://www.w3.org/2000/svg">
<path d="M1.583 13.3212C0.553 12.2272 0 11.0002 0 9.01124C0 5.51124 2.457 2.37424 6.03 0.823242L6.923 2.20124C3.588 4.00524 2.936 6.34624 2.676 7.82224C3.213 7.54424 3.916 7.44724 4.605 7.51124C6.409 7.67824 7.831 9.15924 7.831 11.0002C7.831 11.9285 7.46225 12.8187 6.80587 13.4751C6.1495 14.1315 5.25926 14.5002 4.331 14.5002C3.258 14.5002 2.232 14.0102 1.583 13.3212ZM11.583 13.3212C10.553 12.2272 10 11.0002 10 9.01124C10 5.51124 12.457 2.37424 16.03 0.823242L16.923 2.20124C13.588 4.00524 12.936 6.34624 12.676 7.82224C13.213 7.54424 13.916 7.44724 14.605 7.51124C16.409 7.67824 17.831 9.15924 17.831 11.0002C17.831 11.9285 17.4623 12.8187 16.8059 13.4751C16.1495 14.1315 15.2593 14.5002 14.331 14.5002C13.258 14.5002 12.232 14.0102 11.583 13.3212Z" fill="#F2C19D"/>
</svg>
